<svg xmlns="http://www.w3.org/2000/svg" xmlns:xlink="http://www.w3.org/1999/xlink" width="64" height="64" viewBox="0 0 64 64"><defs><clipPath id="b"><rect width="64" height="64"/></clipPath></defs><g id="a" clip-path="url(#b)"><g transform="translate(-160.323 -140.5)"><path d="M843.337,234.659a.636.636,0,0,1,.636.636v5.058a1.9,1.9,0,0,1-1.9,1.9h-13.29a7.591,7.591,0,0,1-7.591-7.591V202.4a1.9,1.9,0,0,1,1.9-1.9h5.059a.635.635,0,0,1,.635.636v31.626a1.9,1.9,0,0,0,1.9,1.9Z" transform="translate(-649.87 -49)" fill="#66fcf1"/><path d="M853.9,200.525h-3.789a1.9,1.9,0,0,0-1.9,1.9v3.8a1.9,1.9,0,0,0,1.9,1.9h5.257a.429.429,0,0,0,.429-.429v-5.264A1.9,1.9,0,0,0,853.9,200.525Z" transform="translate(-665.497 -49.014)" fill="#66fcf1"/><path d="M850.112,226.821a3.7,3.7,0,0,1-1.9-.5V243.9a1.9,1.9,0,0,0,1.9,1.9h5.058a.635.635,0,0,0,.636-.636V226.821h-5.687Z" transform="translate(-665.492 -63.935)" fill="#66fcf1"/><path d="M891.614,200.5H874.042a3.7,3.7,0,0,1,.492,1.9v5.693h1.9a1.9,1.9,0,0,1,1.9,1.9v31.626a.635.635,0,0,0,.635.636h5.057a1.9,1.9,0,0,0,1.9-1.9V209.988a1.9,1.9,0,0,1,1.9-1.9h5.058a.635.635,0,0,0,.636-.635V202.4A1.9,1.9,0,0,0,891.614,200.5Z" transform="translate(-680.432 -49)" fill="#66fcf1"/></g></g></svg>