<svg xmlns="http://www.w3.org/2000/svg" width="50.029" height="50.022" viewBox="0 0 50.029 50.022"><path d="M847.724,241.427a.762.762,0,0,1,.762.761v6.06a2.274,2.274,0,0,1-2.274,2.274H830.288a9.1,9.1,0,0,1-9.1-9.1V202.773a2.273,2.273,0,0,1,2.273-2.273h6.061a.761.761,0,0,1,.761.761v37.891a2.274,2.274,0,0,0,2.274,2.274Z" transform="translate(-821.193 -200.5)" fill="#f6f9fc"/><path d="M855.03,200.525h-4.54a2.274,2.274,0,0,0-2.274,2.274v4.547a2.274,2.274,0,0,0,2.274,2.274h6.3a.514.514,0,0,0,.514-.514V202.8A2.273,2.273,0,0,0,855.03,200.525Z" transform="translate(-834.562 -200.512)" fill="#f6f9fc"/><path d="M850.489,226.919a4.439,4.439,0,0,1-2.282-.593v21.05a2.274,2.274,0,0,0,2.274,2.274h6.06a.761.761,0,0,0,.761-.761V226.919h-6.813Z" transform="translate(-834.558 -213.277)" fill="#f6f9fc"/><path d="M895.1,200.5H874.042a4.438,4.438,0,0,1,.589,2.273v6.821H876.9a2.274,2.274,0,0,1,2.274,2.274V249.76a.761.761,0,0,0,.761.761H886a2.274,2.274,0,0,0,2.274-2.274v-36.38a2.274,2.274,0,0,1,2.274-2.274h6.06a.761.761,0,0,0,.761-.761v-6.061A2.273,2.273,0,0,0,895.1,200.5Z" transform="translate(-847.339 -200.5)" fill="#f6f9fc"/></svg>