<svg xmlns="http://www.w3.org/2000/svg" width="216.55" height="75.659" viewBox="0 0 216.55 75.659"><path d="M722.272,200.5a13.647,13.647,0,0,1,13.534,13.756V272.72a3.412,3.412,0,0,1-3.384,3.439H723.4a1.142,1.142,0,0,1-1.132-1.152V252.086a3.412,3.412,0,0,0-3.384-3.439h-6.767a3.412,3.412,0,0,0-3.384,3.439v22.922a1.143,1.143,0,0,1-1.133,1.152h-9.018a3.411,3.411,0,0,1-3.383-3.438V214.256A13.647,13.647,0,0,1,708.737,200.5Zm-10.151,13.755a3.412,3.412,0,0,0-3.384,3.439v13.756a3.412,3.412,0,0,0,3.384,3.439h6.767a3.412,3.412,0,0,0,3.384-3.439V217.695a3.412,3.412,0,0,0-3.384-3.439Z" transform="translate(-647.836 -200.5)" fill="#0a2540"/><path d="M795.417,200.5a3.412,3.412,0,0,1,3.384,3.439V262.4a13.647,13.647,0,0,1-13.535,13.757H771.732A13.647,13.647,0,0,1,758.2,262.4V203.938a3.41,3.41,0,0,1,3.382-3.438H770.6a1.143,1.143,0,0,1,1.133,1.152v57.312a3.412,3.412,0,0,0,3.384,3.439h6.768a3.412,3.412,0,0,0,3.384-3.439V201.652A1.142,1.142,0,0,1,786.4,200.5Z" transform="translate(-663.465 -200.5)" fill="#0a2540"/><path d="M860.674,262.4a1.143,1.143,0,0,1,1.133,1.152v9.166a3.412,3.412,0,0,1-3.384,3.439h-23.7A13.647,13.647,0,0,1,821.193,262.4V203.938a3.41,3.41,0,0,1,3.383-3.438h9.02a1.142,1.142,0,0,1,1.132,1.152v57.312a3.412,3.412,0,0,0,3.384,3.439Z" transform="translate(-679.093 -200.5)" fill="#0a2540"/><path d="M858.356,200.525H851.6a3.412,3.412,0,0,0-3.384,3.439v6.877a3.412,3.412,0,0,0,3.384,3.439h9.372a.772.772,0,0,0,.766-.778v-9.54A3.41,3.41,0,0,0,858.356,200.525Z" transform="translate(-685.797 -200.506)" fill="#0a2540"/><path d="M851.6,227.223a6.523,6.523,0,0,1-3.4-.9v31.839a3.412,3.412,0,0,0,3.384,3.439h9.018a1.142,1.142,0,0,0,1.133-1.152V227.223H851.6Z" transform="translate(-685.795 -206.589)" fill="#0a2540"/><path d="M905.372,200.5h-31.33a6.8,6.8,0,0,1,.877,3.438v10.317H878.3a3.412,3.412,0,0,1,3.384,3.439v57.313a1.142,1.142,0,0,0,1.133,1.152h9.017a3.412,3.412,0,0,0,3.384-3.439V217.695a3.412,3.412,0,0,1,3.384-3.439h9.018a1.142,1.142,0,0,0,1.133-1.151v-9.167A3.41,3.41,0,0,0,905.372,200.5Z" transform="translate(-692.205 -200.5)" fill="#0a2540"/><path d="M669.427,200.5a3.412,3.412,0,0,1,3.384,3.439V272.72a3.412,3.412,0,0,1-3.384,3.439h-9.018a1.142,1.142,0,0,1-1.132-1.152V252.086a3.412,3.412,0,0,0-3.384-3.439h-6.767a3.411,3.411,0,0,0-3.383,3.438v22.923a1.143,1.143,0,0,1-1.133,1.152h-9.018a3.411,3.411,0,0,1-3.384-3.439V203.938a3.41,3.41,0,0,1,3.382-3.438h9.019a1.143,1.143,0,0,1,1.133,1.152v29.8a3.411,3.411,0,0,0,3.384,3.439h6.766a3.412,3.412,0,0,0,3.384-3.439v-29.8a1.142,1.142,0,0,1,1.132-1.152Z" transform="translate(-632.208 -200.5)" fill="#0a2540"/></svg>